PathFileType	4	(X/Y/Z)	C:\InverseKin\data\OA1\Walking\OA1_80_1.trc
DataRate	CameraRate	NumFrames	NumMarkers	Units	OrigDataRate	OrigDataStartFrame	OrigNumFrames
100.00	100.00	       6	42	mm	100.00	182	       291
Frame#	Time	R.Shoulder			R.Clavicle			R.Bicep			R.Elbow			R.Forearm			R.Wrist			L.Shoulder			L.Clavicle			L.Scapula			L.Bicep			L.Elbow			L.Forearm			L.Wrist			R.ASIS			R.Iliac			R.PSIS			S2			L.PSIS			L.Iliac			L.ASIS			R.TH1			R.TH2			R.TH3			R.Knee			R.SH1			R.SH2			R.SH3			R.SH4			R.Ankle			R.Heel			R.MT5			L.TH1			L.TH2			L.TH3			L.TH4			L.Knee			L.SH1			L.SH2			L.SH3			L.Ankle			L.Heel			L.MT5			
		X1	Y1	Z1	X2	Y2	Z2	X3	Y3	Z3	X4	Y4	Z4	X5	Y5	Z5	X6	Y6	Z6	X7	Y7	Z7	X8	Y8	Z8	X9	Y9	Z9	X10	Y10	Z10	X11	Y11	Z11	X12	Y12	Z12	X13	Y13	Z13	X14	Y14	Z14	X15	Y15	Z15	X16	Y16	Z16	X17	Y17	Z17	X18	Y18	Z18	X19	Y19	Z19	X20	Y20	Z20	X21	Y21	Z21	X22	Y22	Z22	X23	Y23	Z23	X24	Y24	Z24	X25	Y25	Z25	X26	Y26	Z26	X27	Y27	Z27	X28	Y28	Z28	X29	Y29	Z29	X30	Y30	Z30	X31	Y31	Z31	X32	Y32	Z32	X33	Y33	Z33	X34	Y34	Z34	X35	Y35	Z35	X36	Y36	Z36	X37	Y37	Z37	X38	Y38	Z38	X39	Y39	Z39	X40	Y40	Z40	X41	Y41	Z41	X42	Y42	Z42	

182	1.810	323.60098	56.24052	1377.32288	381.68954	219.54497	1334.44043	314.80548	29.35229	1240.83813	194.73244	-34.20668	1097.92822	239.32806	-22.37918	980.66602	209.27274	-58.58338	857.59015	344.29306	443.85858	1377.40442	389.53314	275.14810	1339.43115	190.17172	363.75381	1304.62585	429.12610	458.91058	1157.55640	389.54391	530.32056	1077.64758	523.14014	483.45343	988.87946	572.14319	522.02679	917.06226	402.41888	121.56903	974.59991	270.86099	80.73238	1053.41382	162.90536	181.35628	1008.50519	153.87280	237.06462	997.39551	167.05449	296.58453	1023.39587	282.36932	414.22754	1047.80566	395.67889	370.37686	969.25299	464.98013	123.57706	752.61163	492.28946	130.28401	679.38202	374.61942	58.74485	631.31744	453.58304	78.91707	503.05255	570.11426	142.22427	376.41391	587.15686	143.56857	305.31790	490.88940	64.12830	358.10358	501.49557	68.72527	285.08890	580.21490	100.64475	107.94302	530.46381	163.16063	35.54149	707.09454	69.41425	72.80113	357.82748	380.13330	747.26215	346.55151	358.29745	668.34869	218.36398	427.78705	757.97137	202.62691	403.48358	677.87732	211.77475	372.77615	494.27887	220.72260	338.56116	336.36197	199.04079	323.98099	264.77829	93.86764	360.10727	287.33667	79.98673	328.10403	105.75690	-1.32813	285.77057	50.67450	182.92973	352.58572	40.94720	
183	1.820	334.38513	54.70965	1376.07129	393.11841	218.53137	1332.60229	322.94012	27.48063	1239.52930	200.35837	-34.09596	1098.69678	243.38033	-24.13478	980.35034	209.50525	-60.01536	858.06396	355.01004	442.42593	1376.24646	401.05685	273.43417	1338.00403	201.08112	362.96024	1302.68237	442.30096	457.43655	1157.08118	403.61703	527.90283	1076.43103	538.11420	481.03543	990.21814	588.76526	518.85260	919.83881	414.34573	121.15326	972.77051	283.12317	79.49542	1051.33582	174.40802	179.70738	1006.90430	159.49931	237.93727	996.92102	177.74088	294.50232	1021.46130	293.19257	413.38184	1045.54126	405.62997	370.65323	967.24896	474.39359	122.96567	748.46417	501.32523	128.47891	674.57819	381.65695	58.59698	627.42145	461.37515	78.73539	498.36008	584.57410	141.51869	378.06607	603.93494	142.76152	307.21188	505.73990	63.28728	357.42258	518.51923	67.55462	284.58743	604.99872	98.03535	110.35714	557.22333	159.66565	35.18861	734.74005	69.96889	78.96870	365.80646	380.14328	745.08197	354.24084	359.98373	666.56970	226.02255	426.47501	757.53693	209.49696	402.98572	678.11761	218.42220	372.34607	493.64270	225.02931	338.71756	334.79932	202.41681	323.92188	264.27985	97.46416	359.81702	288.46561	80.06236	328.39706	106.63496	-1.40528	285.57394	51.56511	183.08205	352.47003	40.97928	
184	1.830	345.12311	53.99168	1374.20996	404.40829	217.06673	1330.90723	333.12811	25.78132	1238.57520	206.69830	-35.17123	1098.99500	245.86598	-25.72514	979.57880	211.00461	-61.13236	858.19781	366.43927	441.08347	1374.52917	411.82910	272.24347	1336.33411	212.30692	361.17758	1300.84802	454.67276	455.68219	1155.90894	417.34052	527.13293	1075.52563	554.01031	478.83414	992.09619	605.86670	516.06439	922.06171	424.05600	121.12094	970.80432	296.28488	79.09076	1049.28149	186.89975	178.14279	1004.66370	173.36427	237.59471	994.30457	189.93625	292.96625	1019.93311	303.28125	412.55142	1044.37488	417.41611	370.24149	965.28827	484.67538	120.95937	744.41656	511.40161	126.54742	671.12012	389.92712	58.46696	624.13538	469.02588	79.27401	495.02765	597.97656	141.38971	379.07297	619.51862	142.38661	309.21155	520.15887	62.90613	355.37753	535.66351	66.73189	283.94937	628.71582	96.43450	112.42246	582.00507	156.47197	34.75438	758.46210	69.26723	85.89195	374.78305	381.51486	743.66583	362.74176	360.46732	664.81805	234.11429	425.23953	757.03180	217.82333	401.97861	677.43256	224.52551	371.68375	492.88788	229.69650	338.95157	334.48904	205.80750	324.11615	263.35037	101.24065	359.87225	289.31177	81.82058	328.69684	107.48248	-1.44930	285.73846	52.66994	183.07956	352.28793	40.99286	
185	1.840	356.60599	51.97262	1372.85205	415.33981	215.59436	1329.40808	343.02869	24.11169	1237.23071	213.48720	-34.77446	1099.26721	251.77840	-26.43887	979.06360	214.00208	-61.98244	858.77319	377.00156	440.03604	1372.53271	423.35068	270.83948	1334.11890	223.39731	360.43915	1298.89697	467.06522	453.69678	1155.26965	430.95047	525.64087	1074.24475	568.69464	476.33676	993.30914	622.47980	513.22821	924.90704	438.82001	121.61652	968.77325	308.55121	77.62708	1047.76807	198.72495	176.11601	1003.26978	184.08206	235.56212	993.12024	200.61082	291.43872	1018.65021	314.32175	411.66440	1042.58276	427.43890	370.49411	963.79321	495.04013	119.89675	741.68292	521.06946	124.98972	668.03912	398.96228	58.70494	621.77722	479.60715	79.47893	492.68692	611.45776	141.39738	379.21896	634.09424	141.25848	310.30664	534.11310	61.97266	353.87527	551.78064	66.23605	282.88046	648.78931	95.76083	114.87250	604.58307	153.67738	35.01928	779.93646	69.23962	92.87972	383.43695	381.86511	741.51837	370.95364	361.13980	662.44617	243.03467	423.48590	756.29449	226.31140	400.50040	677.03583	231.32532	371.97559	492.35635	234.39436	338.93063	333.47430	208.94522	324.61880	263.34247	105.16924	359.59589	290.22693	82.82494	328.81451	108.76790	-0.05838	285.75226	54.16162	183.20050	352.33548	41.03570	
186	1.850	367.36292	51.44892	1371.35071	427.17200	214.60301	1327.24121	352.40781	22.31506	1235.97937	220.66200	-35.56587	1099.38452	258.67157	-26.99713	979.87415	216.32166	-62.87094	858.89075	388.20114	438.53754	1371.13428	435.07797	269.26080	1332.49988	234.57043	357.98111	1296.55579	480.07367	451.60382	1154.05347	444.31342	524.49261	1072.51221	583.06281	473.65045	994.13947	637.86493	509.70050	926.45587	449.20767	120.73291	966.38947	321.69818	76.59063	1045.79553	211.25401	174.44035	1001.31580	195.61635	233.73296	991.09418	212.36658	289.84497	1016.30408	324.73810	410.21127	1040.75342	438.96701	370.11383	961.77222	505.83810	119.01256	738.62054	531.43488	123.37534	665.18042	408.61209	58.33782	619.06769	490.16791	79.06572	490.60019	623.58667	141.33456	379.21704	648.12762	141.53563	310.39651	547.51630	61.59897	352.71194	567.00482	65.39716	281.73022	667.06073	96.20548	115.07220	623.90277	153.69286	34.05734	798.27454	68.86954	97.16496	392.66486	381.76260	739.69849	379.79718	361.05429	660.56104	251.51433	422.32410	756.00787	234.60944	399.02090	676.68713	238.57281	371.69791	491.68857	239.68593	338.86273	332.67960	212.60794	324.60776	262.77109	109.62910	359.72235	291.89755	83.75570	329.57169	110.29472	-0.18813	285.73712	56.19616	183.15259	352.21854	40.82264	
187	1.860	378.93570	49.44248	1369.41541	437.77069	212.01685	1325.23364	361.76199	20.18178	1234.28162	229.00966	-36.58044	1099.29456	264.13000	-28.39191	978.40704	221.68124	-63.54540	859.22913	399.84866	436.82944	1369.24426	446.69101	267.66910	1331.09399	245.80338	356.82343	1295.01379	491.82141	449.24887	1152.40027	457.81122	522.93237	1071.13037	596.67212	470.80106	994.75793	653.11255	506.90277	928.28748	463.86252	120.42768	965.11267	334.63885	74.93501	1043.99829	223.41467	172.81812	999.02002	207.70088	231.56793	989.50409	224.80367	287.84641	1014.33032	337.75842	409.08789	1038.47363	450.30869	369.20673	959.89978	516.76019	117.99777	737.08124	543.29681	122.98135	663.43158	419.36313	57.99595	617.57269	502.16812	78.06705	489.33182	635.39178	141.11014	378.61139	660.99884	141.59271	310.16718	561.37860	60.69328	351.07959	580.52899	65.49205	279.97757	681.74219	95.29202	114.90427	641.22552	154.12770	32.87713	813.10583	68.00545	98.34620	402.60016	381.61209	737.65259	388.67889	361.84818	659.07910	260.94739	421.17105	755.97296	243.90273	397.42670	676.10938	245.81570	371.42911	491.17386	244.30493	338.82346	331.98297	216.75247	325.64230	263.32657	113.76570	360.40341	293.33954	85.12183	329.94724	111.64164	0.30443	286.25354	59.12707	183.27602	352.44821	40.85191	
